<?xml version="1.0" encoding="UTF-8"?>
<svg id="Layer_2" xmlns="http://www.w3.org/2000/svg" viewBox="0 0 155.83 200.4">
  <defs>
    <style>
      .cls-1 {
        fill: #fff;
      }
    </style>
  </defs>
  <g id="Layer_1-2" data-name="Layer_1">
    <g>
      <path class="cls-1" d="M57.73,200.4c-4.27-.35-8.36-.51-12.41-1.05-10.16-1.36-19.62-4.64-27.84-10.95C6.54,180.01.72,168.68.35,155.1-.18,135.25.06,115.38.02,95.51c-.03-16.47-.02-32.95.04-49.42.04-11.83,4.49-21.88,12.83-30.13C21.51,7.44,32.18,2.85,44.04,1.08,48.73.37,53.52.07,58.27.05,89.61-.03,120.95,0,152.29.01c3.81,0,3.71,0,3.4,3.82-.59,7.35-2.33,14.32-6.35,20.6-6.45,10.09-15.74,15.5-27.61,16.46-3.21.26-6.46.05-9.68.06-1.52,0-2.4-.62-3.1-2.1-5.51-11.48-16.67-18.39-28.03-17.53-13.12,1-23.7,11.5-25.13,25.32-1.1,10.58-6.11,18.5-15.2,23.92-5.58,3.32-10.85,6.98-14.61,12.47-5.87,8.56-6.92,18.16-5.9,28.05,2.2,21.23,11.43,39.03,27.33,53.2,5.36,4.77,8.24,10.3,8.64,17.4.31,5.63,1.05,11.23,1.59,16.84.04.46.04.93.09,1.88Z"/>
      <path class="cls-1" d="M54.18,133.68c.21-.17.31-.32.44-.37,2.28-.82,4.74-2.56,6.78-2.16,1.8.35,3.16,3.07,4.65,4.79,6.76,7.76,14.44,14.33,24.05,18.32,5.08,2.1,10.01,1.59,14.85-1.18,9.55-5.46,15.7-13.65,19.86-23.62,2.61-6.24,5.58-12.34,8.04-18.64,2.6-6.65,2.46-13.55,1.02-20.49-1.6-7.7-12.68-12.04-18.32-10.11-1.75.6-3.59,2.09-4.52,3.68-3.03,5.23-2.75,10.96,1.37,15.68,1.03,1.18,2.8,1.75,4.29,2.49.75.37,1.64.48,2.8.8-3.43,7.32-11.35,8.65-16.28,13.6-2.13-2.47-3.92-5.24-6.36-7.22-5.11-4.17-10.58-7.9-15.87-11.85-4.58-3.42-9.15-6.87-13.63-10.41-.48-.37-.76-1.62-.51-2.19,1.59-3.6,3.36-7.13,5.14-10.84.76.45,1.44.82,2.08,1.25,6.82,4.59,11.43,3.92,18.82-1.97.65-.52,1.49-.79,2.11-1.33.68-.6,1.29-1.32,1.78-2.09,1.42-2.22,2.66-4.56,4.2-6.69.43-.6,1.82-1.09,2.47-.84,15.27,5.77,31.21,4.21,46.98,4.43,1.37.02,2.75.02,4.12.06.23,0,.45.13.86.26v133.22c-5.11,0-10.17.07-15.23-.02-7.47-.12-14.79-1.29-21.86-3.74-12.9-4.48-22.78-12.73-29.36-24.65-4-7.26-9.55-12.9-16.09-17.79-7.17-5.37-13.26-11.79-18.1-19.35-.21-.32-.39-.67-.59-1.02Z"/>
    </g>
  </g>
</svg>